<svg xmlns="http://www.w3.org/2000/svg" xmlns:xlink="http://www.w3.org/1999/xlink" width="250" zoomAndPan="magnify" viewBox="0 0 187.5 187.499992" height="250" preserveAspectRatio="xMidYMid meet" version="1.0"><defs><g/><clipPath id="d5ba6eb0d8"><path d="M 0 0 L 187 0 L 187 186.996094 L 0 186.996094 Z M 0 0 " clip-rule="nonzero"/></clipPath><clipPath id="c227d03d85"><path d="M 187 26.179688 L 187 160.816406 C 187 175.277344 175.28125 186.996094 160.820312 186.996094 L 26.179688 186.996094 C 11.722656 186.996094 0 175.277344 0 160.816406 L 0 26.179688 C 0 11.722656 11.722656 0 26.179688 0 L 160.820312 0 C 175.28125 0 187 11.722656 187 26.179688 Z M 187 26.179688 " clip-rule="nonzero"/></clipPath><clipPath id="328745afec"><path d="M 0 0 L 187 0 L 187 186.996094 L 0 186.996094 Z M 0 0 " clip-rule="nonzero"/></clipPath><clipPath id="1913eab0be"><path d="M 187 26.179688 L 187 160.816406 C 187 175.277344 175.28125 186.996094 160.820312 186.996094 L 26.179688 186.996094 C 11.722656 186.996094 0 175.277344 0 160.816406 L 0 26.179688 C 0 11.722656 11.722656 0 26.179688 0 L 160.820312 0 C 175.28125 0 187 11.722656 187 26.179688 Z M 187 26.179688 " clip-rule="nonzero"/></clipPath><clipPath id="08d063e243"><rect x="0" width="187" y="0" height="187"/></clipPath><clipPath id="01ac894158"><path d="M 54.648438 52 L 133.191406 52 L 133.191406 117 L 54.648438 117 Z M 54.648438 52 " clip-rule="nonzero"/></clipPath><clipPath id="45c23be3b7"><path d="M 65.71875 3 L 123.3125 3 L 123.3125 65.785156 L 65.71875 65.785156 Z M 65.71875 3 " clip-rule="nonzero"/></clipPath><clipPath id="edc1ba7345"><path d="M 47.234375 131.230469 L 59.527344 131.230469 L 59.527344 143.195312 L 47.234375 143.195312 Z M 47.234375 131.230469 " clip-rule="nonzero"/></clipPath><clipPath id="4475cf7210"><path d="M 0.234375 0.230469 L 12.527344 0.230469 L 12.527344 12.195312 L 0.234375 12.195312 Z M 0.234375 0.230469 " clip-rule="nonzero"/></clipPath><clipPath id="e91585be69"><rect x="0" width="13" y="0" height="13"/></clipPath></defs><g clip-path="url(#d5ba6eb0d8)"><g clip-path="url(#c227d03d85)"><g transform="matrix(1, 0, 0, 1, 0, 0)"><g clip-path="url(#08d063e243)"><g clip-path="url(#328745afec)"><g clip-path="url(#1913eab0be)"><path fill="#e8cfa0" d="M 0 0 L 186.996094 0 L 186.996094 186.996094 L 0 186.996094 Z M 0 0 " fill-opacity="1" fill-rule="nonzero"/></g></g></g></g></g></g><g clip-path="url(#01ac894158)"><path fill="#2e1f14" d="M 133.332031 72.257812 L 133.332031 114.058594 C 133.332031 116.515625 130.871094 116.515625 130.871094 116.515625 L 57.109375 116.515625 C 57.109375 116.515625 54.648438 116.515625 54.648438 114.058594 L 54.648438 72.257812 Z M 57.109375 52.589844 L 78.007812 52.589844 C 80.609375 52.589844 81.695312 55.046875 81.695312 55.046875 L 84.15625 59.964844 L 130.871094 59.964844 C 130.871094 59.964844 133.332031 59.964844 133.332031 62.425781 L 133.332031 69.800781 L 54.648438 69.800781 L 54.648438 55.046875 C 54.648438 52.589844 57.109375 52.589844 57.109375 52.589844 Z M 86.613281 84.554688 L 86.613281 104.222656 L 103.824219 94.386719 Z M 86.613281 84.554688 " fill-opacity="1" fill-rule="nonzero"/></g><g clip-path="url(#45c23be3b7)"><path fill="#2e1f14" d="M 103.820312 38.5625 C 109.511719 35.285156 113.359375 29.140625 113.359375 22.109375 C 113.359375 11.644531 104.84375 3.132812 94.378906 3.132812 C 83.917969 3.132812 75.402344 11.644531 75.402344 22.109375 C 75.402344 29.191406 79.304688 35.375 85.066406 38.636719 C 73.8125 42.582031 65.710938 53.339844 65.710938 65.96875 L 69.777344 65.96875 C 69.777344 52.25 80.890625 41.085938 94.550781 41.085938 C 108.210938 41.085938 119.320312 52.25 119.320312 65.96875 L 123.386719 65.96875 C 123.386719 53.257812 115.1875 42.445312 103.820312 38.5625 Z M 79.46875 22.109375 C 79.46875 13.886719 86.160156 7.199219 94.378906 7.199219 C 102.601562 7.199219 109.292969 13.886719 109.292969 22.109375 C 109.292969 30.332031 102.601562 37.019531 94.378906 37.019531 C 86.160156 37.019531 79.46875 30.332031 79.46875 22.109375 Z M 79.46875 22.109375 " fill-opacity="1" fill-rule="nonzero"/></g><g clip-path="url(#edc1ba7345)"><g transform="matrix(1, 0, 0, 1, 47, 131)"><g clip-path="url(#e91585be69)"><g clip-path="url(#4475cf7210)"><path fill="#e8cfa0" d="M 0.234375 0.230469 L 12.53125 0.230469 L 12.53125 12.195312 L 0.234375 12.195312 Z M 0.234375 0.230469 " fill-opacity="1" fill-rule="nonzero"/></g></g></g></g><g fill="#2e1f14" fill-opacity="1"><g transform="translate(12.933155, 141.327062)"><g><path d="M 2.265625 -24.4375 L 8.71875 -24.4375 L 8.71875 -5.9375 L 20.421875 -5.9375 L 20.421875 0 L 2.265625 0 Z M 2.265625 -24.4375 "/></g></g></g><g fill="#2e1f14" fill-opacity="1"><g transform="translate(33.698074, 141.327062)"><g><path d="M 1.921875 -18.15625 L 7.859375 -18.15625 L 7.859375 0 L 1.921875 0 Z M 4.890625 -20.078125 C 3.910156 -20.078125 3.113281 -20.367188 2.5 -20.953125 C 1.882812 -21.546875 1.578125 -22.238281 1.578125 -23.03125 C 1.578125 -23.851562 1.882812 -24.550781 2.5 -25.125 C 3.113281 -25.707031 3.910156 -26 4.890625 -26 C 5.867188 -26 6.664062 -25.707031 7.28125 -25.125 C 7.894531 -24.550781 8.203125 -23.851562 8.203125 -23.03125 C 8.203125 -22.238281 7.894531 -21.546875 7.28125 -20.953125 C 6.664062 -20.367188 5.867188 -20.078125 4.890625 -20.078125 Z M 4.890625 -20.078125 "/></g></g></g><g fill="#2e1f14" fill-opacity="1"><g transform="translate(43.469806, 141.327062)"><g><path d="M 13.4375 0.53125 C 12.507812 0.53125 11.710938 0.375 11.046875 0.0625 C 10.378906 -0.238281 9.816406 -0.570312 9.359375 -0.9375 C 8.816406 -1.363281 8.375 -1.863281 8.03125 -2.4375 L 7.671875 -2.4375 L 7.671875 0 L 1.75 0 L 1.75 -24.4375 L 7.671875 -24.4375 L 7.671875 -15.703125 L 8.03125 -15.703125 C 8.375 -16.265625 8.816406 -16.753906 9.359375 -17.171875 C 9.816406 -17.546875 10.378906 -17.890625 11.046875 -18.203125 C 11.710938 -18.515625 12.507812 -18.671875 13.4375 -18.671875 C 14.53125 -18.671875 15.5625 -18.445312 16.53125 -18 C 17.5 -17.5625 18.347656 -16.929688 19.078125 -16.109375 C 19.804688 -15.285156 20.382812 -14.28125 20.8125 -13.09375 C 21.25 -11.90625 21.46875 -10.566406 21.46875 -9.078125 C 21.46875 -7.585938 21.25 -6.25 20.8125 -5.0625 C 20.382812 -3.875 19.804688 -2.863281 19.078125 -2.03125 C 18.347656 -1.207031 17.5 -0.570312 16.53125 -0.125 C 15.5625 0.3125 14.53125 0.53125 13.4375 0.53125 Z M 11.515625 -4.53125 C 12.660156 -4.53125 13.585938 -4.914062 14.296875 -5.6875 C 15.003906 -6.457031 15.359375 -7.585938 15.359375 -9.078125 C 15.359375 -10.566406 15.003906 -11.691406 14.296875 -12.453125 C 13.585938 -13.222656 12.660156 -13.609375 11.515625 -13.609375 C 10.378906 -13.609375 9.453125 -13.222656 8.734375 -12.453125 C 8.023438 -11.691406 7.671875 -10.566406 7.671875 -9.078125 C 7.671875 -7.585938 8.023438 -6.457031 8.734375 -5.6875 C 9.453125 -4.914062 10.378906 -4.53125 11.515625 -4.53125 Z M 11.515625 -4.53125 "/></g></g></g><g fill="#2e1f14" fill-opacity="1"><g transform="translate(65.979678, 141.327062)"><g><path d="M 1.75 -18.15625 L 7.5 -18.15625 L 7.5 -15.53125 L 7.859375 -15.53125 C 8.066406 -16.09375 8.378906 -16.582031 8.796875 -17 C 9.140625 -17.375 9.59375 -17.71875 10.15625 -18.03125 C 10.71875 -18.34375 11.425781 -18.5 12.28125 -18.5 L 14.140625 -18.5 L 14.140625 -12.734375 L 11.171875 -12.734375 C 10.117188 -12.734375 9.269531 -12.414062 8.625 -11.78125 C 7.988281 -11.144531 7.671875 -10.300781 7.671875 -9.25 L 7.671875 0 L 1.75 0 Z M 1.75 -18.15625 "/></g></g></g><g fill="#2e1f14" fill-opacity="1"><g transform="translate(80.637276, 141.327062)"><g><path d="M 9.078125 0.53125 C 7.984375 0.53125 6.953125 0.3125 5.984375 -0.125 C 5.015625 -0.570312 4.164062 -1.207031 3.4375 -2.03125 C 2.707031 -2.863281 2.125 -3.875 1.6875 -5.0625 C 1.257812 -6.25 1.046875 -7.585938 1.046875 -9.078125 C 1.046875 -10.566406 1.257812 -11.90625 1.6875 -13.09375 C 2.125 -14.28125 2.707031 -15.285156 3.4375 -16.109375 C 4.164062 -16.929688 5.015625 -17.5625 5.984375 -18 C 6.953125 -18.445312 7.984375 -18.671875 9.078125 -18.671875 C 9.984375 -18.671875 10.773438 -18.515625 11.453125 -18.203125 C 12.128906 -17.890625 12.695312 -17.546875 13.15625 -17.171875 C 13.695312 -16.753906 14.140625 -16.265625 14.484375 -15.703125 L 14.828125 -15.703125 L 14.828125 -18.15625 L 20.765625 -18.15625 L 20.765625 0 L 14.828125 0 L 14.828125 -2.4375 L 14.484375 -2.4375 C 14.140625 -1.863281 13.695312 -1.363281 13.15625 -0.9375 C 12.695312 -0.570312 12.128906 -0.238281 11.453125 0.0625 C 10.773438 0.375 9.984375 0.53125 9.078125 0.53125 Z M 11 -4.53125 C 12.132812 -4.53125 13.054688 -4.914062 13.765625 -5.6875 C 14.472656 -6.457031 14.828125 -7.585938 14.828125 -9.078125 C 14.828125 -10.566406 14.472656 -11.691406 13.765625 -12.453125 C 13.054688 -13.222656 12.132812 -13.609375 11 -13.609375 C 9.851562 -13.609375 8.925781 -13.222656 8.21875 -12.453125 C 7.507812 -11.691406 7.15625 -10.566406 7.15625 -9.078125 C 7.15625 -7.585938 7.507812 -6.457031 8.21875 -5.6875 C 8.925781 -4.914062 9.851562 -4.53125 11 -4.53125 Z M 11 -4.53125 "/></g></g></g><g fill="#2e1f14" fill-opacity="1"><g transform="translate(103.147148, 141.327062)"><g><path d="M 1.75 -18.15625 L 7.5 -18.15625 L 7.5 -15.53125 L 7.859375 -15.53125 C 8.066406 -16.09375 8.378906 -16.582031 8.796875 -17 C 9.140625 -17.375 9.59375 -17.71875 10.15625 -18.03125 C 10.71875 -18.34375 11.425781 -18.5 12.28125 -18.5 L 14.140625 -18.5 L 14.140625 -12.734375 L 11.171875 -12.734375 C 10.117188 -12.734375 9.269531 -12.414062 8.625 -11.78125 C 7.988281 -11.144531 7.671875 -10.300781 7.671875 -9.25 L 7.671875 0 L 1.75 0 Z M 1.75 -18.15625 "/></g></g></g><g fill="#2e1f14" fill-opacity="1"><g transform="translate(117.804746, 141.327062)"><g><path d="M 9.078125 0 L 5.0625 0 L 0.34375 -18.15625 L 6.453125 -18.15625 L 9.59375 -5.0625 L 10.640625 -5.0625 L 14.140625 -18.15625 L 20.25 -18.15625 L 13.265625 6.625 L 7.15625 6.625 Z M 9.078125 0 "/></g></g></g><g fill="#2e1f14" fill-opacity="1"><g transform="translate(137.871685, 141.327062)"><g><path d="M 13.09375 0.703125 C 11.394531 0.703125 9.863281 0.453125 8.5 -0.046875 C 7.132812 -0.546875 5.976562 -1.253906 5.03125 -2.171875 C 4.09375 -3.097656 3.367188 -4.203125 2.859375 -5.484375 C 2.347656 -6.765625 2.09375 -8.195312 2.09375 -9.78125 L 2.09375 -24.4375 L 8.546875 -24.4375 L 8.546875 -9.953125 C 8.546875 -8.460938 8.953125 -7.300781 9.765625 -6.46875 C 10.585938 -5.644531 11.695312 -5.234375 13.09375 -5.234375 C 14.488281 -5.234375 15.59375 -5.644531 16.40625 -6.46875 C 17.21875 -7.300781 17.625 -8.460938 17.625 -9.953125 L 17.625 -24.4375 L 24.078125 -24.4375 L 24.078125 -9.78125 C 24.078125 -8.195312 23.820312 -6.765625 23.3125 -5.484375 C 22.800781 -4.203125 22.070312 -3.097656 21.125 -2.171875 C 20.1875 -1.253906 19.035156 -0.546875 17.671875 -0.046875 C 16.316406 0.453125 14.789062 0.703125 13.09375 0.703125 Z M 13.09375 0.703125 "/></g></g></g><g fill="#2e1f14" fill-opacity="1"><g transform="translate(164.045957, 141.327062)"><g><path d="M 2.265625 -24.4375 L 8.71875 -24.4375 L 8.71875 0 L 2.265625 0 Z M 2.265625 -24.4375 "/></g></g></g></svg>